<?xml version="1.0" encoding="utf-8"?>
<svg version="1.1" id="Logos" xmlns="http://www.w3.org/2000/svg" xmlns:xlink="http://www.w3.org/1999/xlink" x="300px" y="56px"
	 viewBox="0 0 234.7 44" style="enable-background:new 0 0 234.7 44;" xml:space="preserve">
<style type="text/css">
	.st0{fill:#FFFFFF;}
	.st1{fill:#EE0000;}
</style>
<title>Logo-Red_Hat-Product Logo copy 2-RGB</title>
<g>
	<path class="st1" d="M21.145,23.936c1.737,0,4.251-0.361,4.251-2.431c0-0.153-0.014-0.32-0.042-0.472l-1.028-4.501
		c-0.236-0.986-0.445-1.445-2.181-2.306c-1.348-0.695-4.279-1.82-5.154-1.82c-0.82,0-1.056,1.042-2.015,1.042
		c-0.931,0-1.612-0.778-2.487-0.778c-0.834,0-1.375,0.57-1.792,1.737c0,0-1.167,3.293-1.32,3.779
		c-0.028,0.083-0.028,0.181-0.028,0.264C9.335,19.726,14.379,23.922,21.145,23.936 M25.66,22.352
		c0.236,1.139,0.236,1.264,0.236,1.403c0,1.945-2.181,3.029-5.057,3.029c-6.502,0-12.185-3.807-12.185-6.322
		c0-0.347,0.069-0.695,0.208-1.014C6.529,19.56,3.5,19.976,3.5,22.644c0,4.376,10.364,9.767,18.562,9.767
		c6.294,0,7.878-2.848,7.878-5.099C29.939,25.548,28.411,23.547,25.66,22.352"/>
	<path d="M25.66,22.352c0.236,1.139,0.236,1.264,0.236,1.403c0,1.945-2.181,3.029-5.057,3.029c-6.502,0-12.185-3.807-12.185-6.322
		c0-0.347,0.069-0.695,0.208-1.014l0.514-1.264c-0.028,0.083-0.028,0.181-0.028,0.264c0,1.278,5.043,5.474,11.796,5.474
		c1.737,0,4.251-0.361,4.251-2.431c0-0.153-0.014-0.32-0.042-0.472L25.66,22.352z"/>
	<path class="st0" d="M83.971,25.228c0,1.653,1,2.459,2.806,2.459c0.556-0.014,1.111-0.097,1.653-0.236v-1.917
		c-0.347,0.111-0.709,0.167-1.07,0.167c-0.75,0-1.028-0.236-1.028-0.931v-2.945H88.5v-1.973h-2.167v-2.501l-2.362,0.514v1.987h-1.57
		v1.973h1.556v3.404H83.971z M76.607,25.27c0-0.514,0.514-0.764,1.292-0.764c0.472,0,0.945,0.056,1.403,0.181v1
		c-0.458,0.25-0.959,0.375-1.473,0.361C77.066,26.048,76.607,25.756,76.607,25.27 M77.33,27.715c0.834,0,1.5-0.181,2.14-0.597v0.472
		h2.334v-4.96c0-1.89-1.264-2.918-3.39-2.918c-1.181,0-2.348,0.278-3.612,0.847l0.847,1.737c0.903-0.375,1.667-0.611,2.334-0.611
		c0.973,0,1.473,0.375,1.473,1.153v0.375c-0.57-0.153-1.167-0.222-1.751-0.222c-1.987,0-3.182,0.834-3.182,2.32
		C74.523,26.673,75.607,27.715,77.33,27.715 M64.492,27.59h2.515v-4.015h4.21v4.001h2.515V17.351h-2.515v3.932h-4.21v-3.932h-2.515
		V27.59z M54.92,23.714c0-1.111,0.875-1.959,2.028-1.959c0.597-0.014,1.181,0.208,1.639,0.597v2.709
		c-0.445,0.417-1.028,0.639-1.639,0.625C55.809,25.673,54.92,24.825,54.92,23.714 M58.615,27.59h2.334V16.836l-2.362,0.514v2.904
		c-0.597-0.347-1.278-0.514-1.973-0.514c-2.251,0-4.015,1.737-4.015,3.96c-0.028,2.167,1.709,3.946,3.876,3.974
		c0.028,0,0.042,0,0.069,0c0.75,0,1.473-0.236,2.07-0.667L58.615,27.59z M47.89,21.644c0.75,0,1.375,0.486,1.626,1.223h-3.223
		C46.514,22.102,47.111,21.644,47.89,21.644 M43.902,23.728c0,2.251,1.834,4.001,4.21,4.001c1.306,0,2.251-0.347,3.223-1.167
		l-1.57-1.389c-0.361,0.375-0.903,0.584-1.542,0.584c-0.82,0.028-1.584-0.458-1.903-1.223h5.502V23.95
		c0-2.459-1.653-4.224-3.904-4.224c-2.195-0.028-4.001,1.723-4.029,3.904C43.902,23.658,43.902,23.686,43.902,23.728 M39.831,19.504
		c0.834,0,1.306,0.528,1.306,1.153s-0.472,1.153-1.306,1.153h-2.487v-2.306H39.831z M34.83,27.576h2.515v-3.723h1.917l1.931,3.723
		h2.806l-2.251-4.099c1.167-0.472,1.931-1.612,1.931-2.876c0-1.834-1.445-3.265-3.612-3.265H34.83V27.576z"/>
</g>
</svg>
